<svg width="50" height="50" viewBox="0 0 50 50" fill="none" xmlns="http://www.w3.org/2000/svg">
<circle cx="25" cy="25" r="25" fill="#E65919"/>
<path d="M35 37.5V34C35 32.6739 34.4732 31.4021 33.5355 30.4645C32.5979 29.5268 31.3261 29 30 29H20C18.6739 29 17.4021 29.5268 16.4645 30.4645C15.5268 31.4021 15 32.6739 15 34V37" stroke="white" stroke-linecap="round" stroke-linejoin="round"/>
<path d="M25 24C27.7614 24 30 21.7614 30 19C30 16.2386 27.7614 14 25 14C22.2386 14 20 16.2386 20 19C20 21.7614 22.2386 24 25 24Z" stroke="white" stroke-linecap="round" stroke-linejoin="round"/>
<path d="M25 41C33.8366 41 41 33.8366 41 25C41 16.1634 33.8366 9 25 9C16.1634 9 9 16.1634 9 25C9 33.8366 16.1634 41 25 41Z" stroke="white" stroke-linecap="round" stroke-linejoin="round"/>
</svg>
